<svg width="58" height="58" viewBox="0 0 58 58" fill="none" xmlns="http://www.w3.org/2000/svg">
<g clip-path="url(#clip0_1398_12414)">
<path fill-rule="evenodd" clip-rule="evenodd" d="M27.8569 12.8811L27.8668 0.00111803L26.4233 0L26.4134 12.88C26.4125 14.0427 27.1854 15.0248 28.2455 15.3378L28.2405 19.893C27.9939 20.0994 27.8369 20.4097 27.8365 20.7567C27.836 21.3788 28.3392 21.8836 28.9605 21.8841C29.5818 21.8847 30.0859 21.3809 30.0865 20.7587C30.0868 20.4117 29.9303 20.1011 29.684 19.8943L29.6889 15.3394C30.75 15.0286 31.5255 14.0473 31.5264 12.8843L31.5363 0.00469627L30.0928 0.00357824L30.0829 12.8832C30.0824 13.4965 29.587 13.9938 28.9753 13.9966C28.9731 13.9966 28.9709 13.9966 28.9687 13.9966C28.9665 13.9966 28.9643 13.9966 28.9621 13.9966C28.3503 13.9923 27.8564 13.4946 27.8569 12.8811ZM16.7984 18.3852C17.2286 18.8172 17.9254 18.8216 18.3616 18.3971C18.365 18.3935 18.3684 18.3901 18.3719 18.3866C18.3735 18.3851 18.375 18.3835 18.3766 18.382C18.3785 18.3801 18.3804 18.3782 18.3824 18.3764C18.807 17.9408 18.8043 17.2427 18.3732 16.8105L9.28483 7.69611L10.3063 6.67488L19.3947 15.7892C20.2157 16.6125 20.36 17.8552 19.8295 18.8261L23.0429 22.0506C23.3631 22.0225 23.6929 22.1311 23.9379 22.3769C24.3773 22.8177 24.3756 23.531 23.9361 23.9702C23.4967 24.4094 22.7843 24.4097 22.3449 23.9689C22.0997 23.7229 21.9919 23.3921 22.0209 23.0713L18.8078 19.8471C17.8373 20.3762 16.5968 20.2295 15.7766 19.4061L6.68792 10.292L7.70938 9.27075L16.7984 18.3852ZM30.0679 45.1189L30.058 57.9989L31.5015 58L31.5114 45.12C31.5123 43.9572 30.7392 42.975 29.6791 42.6621L29.684 38.1074C29.9309 37.901 30.0881 37.5906 30.0884 37.2433C30.089 36.6212 29.5858 36.1164 28.9645 36.1159C28.3432 36.1153 27.839 36.6191 27.8385 37.2413C27.8382 37.5881 27.9945 37.8985 28.2405 38.1054L28.2356 42.6607C27.1747 42.9716 26.3993 43.9528 26.3984 45.1157L26.3885 57.9953L27.832 57.9964L27.8419 45.1168C27.8424 44.502 28.3403 44.0037 28.9541 44.0034L28.9559 44.0034H28.9577C29.5718 44.005 30.0684 44.5037 30.0679 45.1189ZM18.3615 41.1797C18.7964 40.7452 18.7972 40.0396 18.363 39.6041C17.9283 39.1682 17.2237 39.1675 16.7887 39.6024L7.68615 48.7026L6.66623 47.6798L15.7688 38.5796C16.5911 37.7574 17.8321 37.6133 18.8017 38.1446L22.0219 34.9272C21.9937 34.6066 22.1022 34.2761 22.3477 34.0307C22.7879 33.5908 23.5003 33.5925 23.9389 34.0325C24.3776 34.4725 24.3779 35.1859 23.9377 35.6258C23.6921 35.8712 23.3618 35.9792 23.0416 35.9503L19.8214 39.1676C20.3501 40.1395 20.2029 41.3816 19.3812 42.2027L10.2787 51.3034L9.25874 50.2806L18.3615 41.1797ZM12.8644 30.1069L0.00111658 30.097L0 31.5423L12.8633 31.5523C14.0245 31.5532 15.0054 30.7792 15.3179 29.7178L19.8672 29.7228C20.0734 29.9698 20.3832 30.1271 20.7299 30.1274C21.3512 30.1279 21.8553 29.6241 21.8559 29.002C21.8564 28.3799 21.3532 27.8751 20.7319 27.8745C20.3853 27.8742 20.0752 28.0308 19.8686 28.2774L15.3195 28.2725C15.0091 27.2101 14.0292 26.4335 12.8677 26.4326L0.00469019 26.4227L0.00357361 27.8681L12.8665 27.878C13.4807 27.8785 13.9784 28.3773 13.9785 28.9921L13.9785 28.9937V28.9952C13.977 29.6101 13.4789 30.1074 12.8644 30.1069ZM39.5634 16.8199C39.1302 17.2527 39.1277 17.9545 39.5567 18.3903C39.5585 18.3921 39.5603 18.3939 39.5621 18.3956C39.5638 18.3973 39.5655 18.399 39.5671 18.4007C40.0023 18.8315 40.703 18.8304 41.1362 18.3972L50.2388 9.29704L51.2587 10.3199L42.1562 19.42C41.3338 20.2422 40.0929 20.3863 39.1233 19.855L35.9031 23.0724C35.9313 23.3931 35.8229 23.7235 35.5773 23.9689C35.1371 24.4088 34.4247 24.4071 33.9861 23.9671C33.5475 23.5271 33.5472 22.8137 33.9874 22.3738C34.2329 22.1284 34.5632 22.0204 34.8835 22.0493L38.1035 18.8321C37.5748 17.8602 37.722 16.618 38.5437 15.797L47.6462 6.69624L48.6662 7.71903L39.5634 16.8199ZM45.0601 27.8931L57.9234 27.903L57.9246 26.4576L45.0612 26.4477C43.8999 26.4468 42.919 27.2209 42.6065 28.2825L38.0576 28.2776C37.8515 28.0304 37.5415 27.873 37.1947 27.8727C36.5734 27.8721 36.0693 28.376 36.0687 28.9981C36.0682 29.6202 36.5714 30.125 37.1927 30.1255C37.5391 30.1258 37.8491 29.9693 38.0557 29.7229L42.6052 29.7279C42.9157 30.7901 43.8956 31.5664 45.0569 31.5673L57.9199 31.5773L57.921 30.1319L45.058 30.1219C44.4442 30.1215 43.9466 29.6231 43.9461 29.0087L43.9461 29.0066V29.0044C43.9478 28.3897 44.4458 27.8926 45.0601 27.8931ZM41.1262 39.6147C40.697 39.1836 40.0022 39.1783 39.5658 39.6C39.5636 39.6024 39.5614 39.6047 39.5591 39.607C39.557 39.6091 39.5549 39.6113 39.5528 39.6134C39.5484 39.6178 39.5439 39.6221 39.5394 39.6264C39.1176 40.0622 39.1212 40.7581 39.5514 41.1894L48.6398 50.3038L47.6183 51.325L38.5299 42.2107C37.7089 41.3874 37.5646 40.1446 38.0951 39.1738L34.8817 35.9493C34.5616 35.9775 34.2317 35.8688 33.9867 35.623C33.5473 35.1823 33.549 34.4689 33.9885 34.0298C34.4279 33.5906 35.1403 33.5903 35.5797 34.031C35.8249 34.277 35.9327 34.6079 35.9037 34.9286L39.1168 38.1528C40.0873 37.6237 41.3278 37.7704 42.148 38.5938L51.2367 47.7079L50.2152 48.7291L41.1262 39.6147Z" fill="#394E71"/>
</g>
<defs>
<clipPath id="clip0_1398_12414">
<rect width="58" height="58" fill="white"/>
</clipPath>
</defs>
</svg>
